<svg width="24" height="24" viewBox="0 0 24 24" fill="none" xmlns="http://www.w3.org/2000/svg">
<g clip-path="url(#clip0_16_511)">
<path d="M23 12V14C23 17.314 18.075 20 12 20C6.033 20 1.176 17.409 1.005 14.177L1 14V12C1 15.314 5.925 18 12 18C18.075 18 23 15.314 23 12ZM12 4C18.075 4 23 6.686 23 10C23 13.314 18.075 16 12 16C5.925 16 1 13.314 1 10C1 6.686 5.925 4 12 4Z" fill="#6FA0E4"/>
</g>
<defs>
<clipPath id="clip0_16_511">
<rect width="24" height="24" fill="white"/>
</clipPath>
</defs>
</svg>
 16 15.8 14.21 15.8 12C15.8 10.895 16.248 9.895 16.972 9.172L19.8 6.343ZM19.8 9.172L18.386 10.586C18.012 10.96 17.8 11.46 17.8 12L21.8 12.001C21.8 11.461 21.588 10.96 21.214 10.586L19.8 9.172ZM5.79999 9.172L4.38599 10.586C4.01199 10.96 3.79999 11.46 3.79999 12L7.79999 12.001C7.79999 11.461 7.58799 10.96 7.21399 10.586L5.79999 9.172Z" fill="#6FA0E4"/>
</g>
<defs>
<clipPath id="clip0_0_95">
<rect width="24" height="24" fill="white" transform="translate(0.799988)"/>
</clipPath>
</defs>
</svg>
